<?xml version="1.0" encoding="UTF-8" standalone="no"?>
<!-- Creator: CorelDRAW -->

<svg
   xml:space="preserve"
   width="1.1"
   height="1.1"
   style="clip-rule:evenodd;fill-rule:evenodd;image-rendering:optimizeQuality;shape-rendering:geometricPrecision;text-rendering:geometricPrecision"
   viewBox="0 0 1.1000001 1.1"
   version="1.1"
   id="svg1"
   sodipodi:docname="logo 1.svg"
   inkscape:version="1.4.3 (0d15f75, 2025-12-25)"
   xmlns:inkscape="http://www.inkscape.org/namespaces/inkscape"
   xmlns:sodipodi="http://sodipodi.sourceforge.net/DTD/sodipodi-0.dtd"
   xmlns="http://www.w3.org/2000/svg"
   xmlns:svg="http://www.w3.org/2000/svg"><sodipodi:namedview
   id="namedview1"
   pagecolor="#ffffff"
   bordercolor="#000000"
   borderopacity="0.25"
   inkscape:showpageshadow="2"
   inkscape:pageopacity="0.0"
   inkscape:pagecheckerboard="0"
   inkscape:deskcolor="#d1d1d1"
   inkscape:zoom="256"
   inkscape:cx="0.53710938"
   inkscape:cy="0.44335938"
   inkscape:window-width="1378"
   inkscape:window-height="734"
   inkscape:window-x="1991"
   inkscape:window-y="224"
   inkscape:window-maximized="0"
   inkscape:current-layer="Ebene_x0020_1" />
 <defs
   id="defs1">
  <style
   type="text/css"
   id="style1">
   <![CDATA[
    .fil0 {fill:#1F1A17;fill-rule:nonzero}
   ]]>
  </style>
 </defs>
 <g
   id="Ebene_x0020_1"
   inkscape:label="Ebene 1"
   inkscape:groupmode="layer"
   style="display:inline"
   transform="translate(-0.51734375,-0.19703125)">
  <metadata
   id="CorelCorpID_0Corel-Layer" />
  <path
   class="fil0"
   d="m 1.4539925,0.5946025 c 0,0.01214 -0.00211,0.02667 -0.00635,0.04375 -0.00437,0.01707 -0.00762,0.02568 -0.00973,0.02568 -0.00226,0 -0.00494,-0.00282 -0.00805,-0.00833 -0.00324,-0.0055 -0.00719,-0.011 -0.01185,-0.01665 -0.00466,-0.00564 -0.00988,-0.00875 -0.01566,-0.00931 -0.03048,0.04106 -0.04558,0.07662 -0.04558,0.10668 0,0.01439 0.00338,0.02794 0.01044,0.0405 l 0.05531,0.06068 c 0.02145,0.02455 0.03232,0.04995 0.03232,0.0762 0,0.0151 -0.00353,0.02935 -0.01058,0.04247 -0.00706,0.01327 -0.01694,0.0199 -0.02964,0.0199 -0.00155,-0.02131 -0.00875,-0.03909 -0.02145,-0.05334 l -0.219,-0.24116 c -0.01186,0.00776 -0.02046,0.01947 -0.02597,0.03542 -0.00536,0.0158 -0.00804,0.0309 -0.00804,0.04529 0,0.00932 0.00296,0.01948 0.00875,0.03034 0.00578,0.01087 0.0127,0.02131 0.02088,0.03147 0.00805,0.01002 0.01623,0.02004 0.02456,0.0302 0.00832,0.01002 0.01524,0.0206 0.02102,0.03161 0.00579,0.01101 0.00875,0.02117 0.00875,0.03062 0,0.01326 -0.00437,0.02526 -0.01298,0.03598 -0.00875,0.01073 -0.0182,0.01609 -0.02836,0.01609 h -0.08524 c -0.00112,-0.00141 -0.00169,-0.0031 -0.00169,-0.00494 0,-0.00437 0.00198,-0.00691 0.00579,-0.00748 0.00663,-8.4e-4 0.01298,-0.00395 0.01891,-0.00945 0.00592,-0.00565 0.00889,-0.01157 0.00889,-0.01778 0,-0.00748 -0.00523,-0.02554 -0.01567,-0.05405 -0.01058,-0.0285 -0.0158,-0.04939 -0.0158,-0.06223 0,-0.0158 0.00197,-0.03189 0.00578,-0.0484 0.00395,-0.01665 0.01115,-0.03373 0.02188,-0.05165 0.01058,-0.01778 0.0237,-0.03175 0.03922,-0.04191 l -0.02638,-0.02836 c -0.02117,-0.02441 -0.03175,-0.04967 -0.03175,-0.07549 0,-0.02371 0.00959,-0.04601 0.02892,-0.06689 h 0.01073 c 0.00113,0.02356 0.00818,0.0429 0.02145,0.05785 l 0.15818,0.17371 1.5e-4,0.00268 c 0.00874,-0.04191 0.02511,-0.07845 0.04924,-0.1095 -0.04078,-0.01002 -0.06124,-0.03147 -0.06124,-0.06449 0,-0.01326 0.00155,-0.02469 0.00438,-0.03443 0.00296,-0.00959 0.0062,-0.01623 0.00973,-0.02004 0.00367,-0.00367 0.00706,-0.00621 0.01002,-0.00762 l 0.00423,-0.0024 c 0.00311,0.00212 0.00508,0.00466 0.00579,0.00762 8.5e-4,0.00283 0.00155,0.00551 0.00198,0.00777 4.2e-4,0.00239 0.00169,0.00508 0.00395,0.00818 0.00225,0.00296 0.00719,0.00635 0.01481,0.00988 0.00762,0.00353 0.01807,0.00748 0.03119,0.01157 0.00776,0.00226 0.01383,0.00423 0.0182,0.00621 0.00438,0.00197 0.00988,0.00494 0.01637,0.00889 0.00649,0.00395 0.01129,0.00917 0.01439,0.01566 0.00325,0.00649 0.0048,0.01411 0.0048,0.023 z"
   id="path1" />
  
 <g
   transform="matrix(0.01856838,0,0,0.02319704,0.61155732,0.97061668)"
   id="g2"
   style="fill:#1a1a1a"><path
     d="m 13.78,-21.17 v 0 q 0.14,0 0.5,-0.02 0.36,-0.03 0.55,-0.03 v 0 q 3.17,0 5.26,1.76 2.09,1.75 2.85,4.87 v 0 q 0.29,1.39 0.34,3.21 v 0 1.4 q 2.35,-3.56 3.6,-7.97 v 0 q 0.19,-0.67 0.31,-0.79 0.12,-0.12 0.75,-0.12 v 0 q 1,0 1,0.33 v 0 q 0,0.05 -0.19,0.82 v 0 q -1.39,5.33 -4.89,9.98 v 0 l -0.53,0.67 0.05,1.16 q 0.14,3.88 0.86,4.56 v 0 q 0.14,0.09 0.43,0.09 v 0 q 0.67,-0.09 1.25,-0.55 0.58,-0.46 0.82,-1.08 v 0 q 0.09,-0.34 0.24,-0.41 0.14,-0.07 0.72,-0.07 v 0 q 0.96,0 0.96,0.43 v 0 q 0,0.29 -0.29,0.87 v 0 q -0.53,1.05 -1.54,1.8 -1.01,0.74 -2.25,0.74 v 0 h -0.34 q -3.26,0 -4.37,-3.46 v 0 l -0.14,-0.33 q -2.55,1.68 -2.83,1.82 v 0 Q 13.34,0.53 9.74,0.53 v 0 q -3.4,0 -5.49,-1.92 -2.09,-1.92 -2.57,-5.04 v 0 Q 1.63,-6.72 1.63,-7.49 v 0 q 0,-1.25 0.15,-2.01 v 0 q 0.72,-4.32 4.17,-7.76 3.46,-3.43 7.83,-3.91 z M 5.81,-5.76 v 0 q 0,2.06 1.1,3.29 1.11,1.22 3.07,1.22 v 0 q 1.25,0 2.79,-0.38 v 0 Q 15.46,-2.3 18,-4.22 v 0 q 0.34,-0.24 0.65,-0.51 0.31,-0.26 0.5,-0.45 v 0 l 0.19,-0.2 -0.04,-0.43 q 0,-0.43 -0.03,-1.27 -0.02,-0.84 -0.02,-1.66 v 0 q -0.05,-1.82 -0.07,-2.83 -0.03,-1.01 -0.2,-2.47 -0.16,-1.46 -0.45,-2.26 -0.29,-0.79 -0.79,-1.6 -0.51,-0.82 -1.3,-1.18 -0.79,-0.36 -1.85,-0.36 v 0 q -3.31,0 -5.81,3.5 v 0 q -1.2,1.78 -2.01,4.85 v 0 q -0.96,3.51 -0.96,5.33 z"
     fill="#404040"
     id="path1-9"
     style="fill:#1a1a1a" /></g></g><g
   inkscape:groupmode="layer"
   id="layer1"
   inkscape:label="Ebene 2"
   transform="translate(-0.51734375,-0.19703125)"><circle
     style="fill:none;stroke:#000000;stroke-width:0.02;stroke-dasharray:none;stroke-opacity:1"
     id="path2"
     cx="1.0683594"
     cy="0.75195312"
     r="0.52148438" /></g>
</svg>
